<?xml version="1.0" encoding="UTF-8" standalone="no"?>
<!-- Created with Inkscape (http://www.inkscape.org/) -->

<svg
   width="94"
   height="48"
   viewBox="0 0 24.870833 12.7"
   version="1.1"
   id="svg6901"
   inkscape:version="1.2.2 (732a01da63, 2022-12-09)"
   sodipodi:docname="brand.svg"
   xmlns:inkscape="http://www.inkscape.org/namespaces/inkscape"
   xmlns:sodipodi="http://sodipodi.sourceforge.net/DTD/sodipodi-0.dtd"
   xmlns:xlink="http://www.w3.org/1999/xlink"
   xmlns="http://www.w3.org/2000/svg"
   xmlns:svg="http://www.w3.org/2000/svg">
  <sodipodi:namedview
     id="namedview6903"
     pagecolor="#ffffff"
     bordercolor="#000000"
     borderopacity="0.25"
     inkscape:showpageshadow="2"
     inkscape:pageopacity="0.0"
     inkscape:pagecheckerboard="0"
     inkscape:deskcolor="#d1d1d1"
     inkscape:document-units="mm"
     showgrid="false"
     inkscape:zoom="6.2502245"
     inkscape:cx="2.4799109"
     inkscape:cy="33.598793"
     inkscape:window-width="1920"
     inkscape:window-height="1017"
     inkscape:window-x="1912"
     inkscape:window-y="-8"
     inkscape:window-maximized="1"
     inkscape:current-layer="layer1" />
  <defs
     id="defs6898">
    <rect
       x="144.84125"
       y="164.95808"
       width="399.65457"
       height="253.47218"
       id="rect413" />
    <linearGradient
       inkscape:collect="always"
       xlink:href="#linearGradient4255"
       id="linearGradient4257"
       x1="120.34216"
       y1="37.197235"
       x2="122.06716"
       y2="35.346786"
       gradientUnits="userSpaceOnUse"
       gradientTransform="matrix(0.92162416,0,0,0.92162416,-106.87462,-28.155039)" />
    <linearGradient
       inkscape:collect="always"
       id="linearGradient4255">
      <stop
         style="stop-color:#486f3c;stop-opacity:1"
         offset="0"
         id="stop4251" />
      <stop
         style="stop-color:#4e7841;stop-opacity:1"
         offset="1"
         id="stop4253" />
    </linearGradient>
  </defs>
  <g
     inkscape:label="Capa 1"
     inkscape:groupmode="layer"
     id="layer1">
    <g
       aria-label="nlace"
       transform="matrix(0.26449191,0,0,0.26449191,-119.68749,-42.361954)"
       id="text411"
       style="font-size:28px;line-height:36px;font-family:Cuprum;-inkscape-font-specification:Cuprum;text-align:end;white-space:pre;shape-inside:url(#rect413);display:inline;fill:#ffffff;stroke-width:5.29134">
      <path
         d="m 495.4402,181.94245 v 9.576 h 1.232 v -9.632 q 0,-1.092 -0.336,-1.876 -0.308,-0.784 -0.896,-1.316 -0.588,-0.56 -1.4,-0.868 -0.784,-0.336 -1.764,-0.476 -0.98,-0.14 -2.044,-0.112 -0.84,0 -1.792,0.168 -0.952,0.14 -1.848,0.392 -0.896,0.252 -1.624,0.588 v -0.896 h -1.232 v 14.028 h 1.232 v -12.18 q 0.728,-0.308 1.568,-0.504 0.84,-0.224 1.764,-0.364 0.924,-0.14 1.792,-0.14 1.036,-0.028 1.988,0.14 0.952,0.14 1.708,0.56 0.784,0.392 1.204,1.12 0.448,0.7 0.448,1.792 z"
         style="font-weight:300;font-stretch:extra-expanded;font-family:'Advent Pro ExtraExpanded';-inkscape-font-specification:'Advent Pro ExtraExpanded,  Light Extra-Expanded'"
         id="path7103" />
      <path
         d="m 499.02417,191.51845 h 1.232 v -19.6 h -1.232 z"
         style="font-weight:300;font-stretch:extra-expanded;font-family:'Advent Pro ExtraExpanded';-inkscape-font-specification:'Advent Pro ExtraExpanded,  Light Extra-Expanded'"
         id="path7105" />
      <path
         d="m 514.76016,181.74645 q -0.896,-0.392 -2.016,-0.728 -1.12,-0.364 -2.352,-0.56 -1.204,-0.224 -2.38,-0.224 -1.288,0 -2.324,0.252 -1.008,0.252 -1.736,0.756 -0.7,0.504 -1.064,1.316 -0.364,0.784 -0.364,1.876 v 2.436 q 0,1.54 0.532,2.52 0.56,0.98 1.568,1.512 1.008,0.532 2.408,0.728 1.428,0.196 3.192,0.168 0.476,0 1.204,-0.028 0.728,-0.028 1.512,-0.084 0.812,-0.028 1.512,-0.084 0.7,-0.028 1.12,-0.056 0.448,-0.028 0.42,-0.028 v -8.708 q 0,-1.652 -0.42,-2.744 -0.42,-1.092 -1.316,-1.68 -0.868,-0.616 -2.24,-0.868 -1.372,-0.252 -3.304,-0.252 l -0.056,0.98 q 1.12,0 2.212,0.14 1.092,0.112 1.96,0.476 0.868,0.364 1.4,1.064 0.532,0.7 0.532,1.82 z m 0,1.092 v 7.644 q 0,0 -0.28,0.028 -0.252,0.028 -0.756,0.056 -0.476,0 -1.092,0.056 -0.588,0.028 -1.26,0.056 -0.644,0.028 -1.26,0.056 -1.848,0.028 -3.108,-0.196 -1.232,-0.224 -1.96,-0.728 -0.7,-0.504 -1.008,-1.26 -0.308,-0.756 -0.308,-1.736 v -2.324 q 0,-0.98 0.364,-1.596 0.364,-0.616 0.952,-0.952 0.588,-0.364 1.316,-0.504 0.756,-0.14 1.512,-0.14 1.176,0 2.352,0.224 1.176,0.196 2.324,0.532 1.176,0.336 2.212,0.784 z"
         style="font-weight:300;font-stretch:extra-expanded;font-family:'Advent Pro ExtraExpanded';-inkscape-font-specification:'Advent Pro ExtraExpanded,  Light Extra-Expanded'"
         id="path7107" />
      <path
         d="m 529.06812,179.14245 0.364,-1.008 q -1.12,-0.42 -2.352,-0.644 -1.204,-0.252 -2.38,-0.252 -2.156,0 -3.612,0.616 -1.456,0.616 -2.184,1.82 -0.7,1.204 -0.7,2.968 v 4.004 q 0,1.932 0.84,3.052 0.84,1.12 2.352,1.624 1.512,0.476 3.528,0.504 1.148,0.028 2.324,-0.112 1.176,-0.112 2.24,-0.336 l -0.252,-1.12 q -0.028,0 -0.392,0.084 -0.336,0.056 -0.924,0.14 -0.588,0.084 -1.344,0.14 -0.756,0.056 -1.568,0.056 -1.316,-0.028 -2.352,-0.224 -1.008,-0.196 -1.736,-0.672 -0.728,-0.476 -1.12,-1.288 -0.364,-0.84 -0.364,-2.1 v -3.612 q 0,-1.456 0.616,-2.436 0.616,-0.98 1.792,-1.484 1.204,-0.504 2.912,-0.504 1.036,0.028 2.184,0.224 1.148,0.196 2.128,0.56 z"
         style="font-weight:300;font-stretch:extra-expanded;font-family:'Advent Pro ExtraExpanded';-inkscape-font-specification:'Advent Pro ExtraExpanded,  Light Extra-Expanded'"
         id="path7109" />
      <path
         d="m 532.26012,187.85045 v -2.128 l 11.396,-0.476 v -3.388 q 0,-1.652 -0.784,-2.66 -0.756,-1.008 -2.128,-1.484 -1.372,-0.476 -3.248,-0.476 -1.848,0 -3.332,0.476 -1.456,0.476 -2.296,1.512 -0.84,1.036 -0.84,2.716 v 5.908 q 0,1.204 0.448,1.988 0.448,0.756 1.26,1.204 0.812,0.448 1.932,0.616 1.12,0.196 2.436,0.196 1.372,0 2.856,-0.336 1.512,-0.364 2.8,-0.98 l -0.448,-0.952 q -1.372,0.56 -2.716,0.896 -1.316,0.308 -2.632,0.308 -0.952,0 -1.792,-0.14 -0.84,-0.14 -1.512,-0.448 -0.644,-0.336 -1.036,-0.896 -0.364,-0.588 -0.364,-1.456 z m 10.136,-6.132 v 2.436 l -10.136,0.364 v -2.492 q 0,-1.316 0.672,-2.128 0.672,-0.84 1.848,-1.232 1.176,-0.392 2.688,-0.392 1.372,0 2.464,0.364 1.12,0.364 1.792,1.12 0.672,0.756 0.672,1.96 z"
         style="font-weight:300;font-stretch:extra-expanded;font-family:'Advent Pro ExtraExpanded';-inkscape-font-specification:'Advent Pro ExtraExpanded,  Light Extra-Expanded'"
         id="path7111" />
    </g>
    <g
       aria-label="Unipacifico"
       id="text2291"
       style="font-weight:300;font-size:2.79226px;line-height:3.59006px;font-family:Calibri;-inkscape-font-specification:'Calibri Light';text-align:end;text-anchor:end;fill:#666666;stroke-width:0.923426">
      <path
         d="m 13.294683,10.12382 q 0,0.160882 -0.04636,0.286316 -0.04499,0.125433 -0.129523,0.211328 -0.08453,0.0859 -0.204512,0.130887 -0.119979,0.04363 -0.268591,0.04363 -0.134977,0 -0.249504,-0.04227 -0.113163,-0.04227 -0.19633,-0.124071 -0.0818,-0.08317 -0.128161,-0.204511 -0.04499,-0.122706 -0.04499,-0.282225 V 9.0358203 q 0,-0.00818 0.0041,-0.014997 0.0041,-0.00682 0.01363,-0.010907 0.01091,-0.00409 0.0259,-0.00682 0.015,-0.00273 0.03954,-0.00273 0.02318,0 0.03954,0.00273 0.01636,0.00273 0.02591,0.00682 0.0095,0.00409 0.01363,0.010907 0.0041,0.00682 0.0041,0.014997 V 10.11564 q 0,0.13225 0.03136,0.231779 0.03272,0.09953 0.09271,0.166336 0.06135,0.06544 0.147248,0.09953 0.08726,0.03272 0.196331,0.03272 0.110436,0 0.19633,-0.03136 0.08726,-0.03272 0.147248,-0.09816 0.05999,-0.06544 0.09135,-0.162246 0.03272,-0.09816 0.03272,-0.229053 V 9.0358203 q 0,-0.00818 0.0041,-0.014997 0.0041,-0.00682 0.01363,-0.010907 0.0095,-0.00409 0.0259,-0.00682 0.01636,-0.00273 0.03954,-0.00273 0.02318,0 0.03954,0.00273 0.01636,0.00273 0.0259,0.00682 0.0095,0.00409 0.01363,0.010907 0.0041,0.00682 0.0041,0.014997 z"
         id="path7114" />
      <path
         d="m 14.776708,10.745534 q 0,0.0082 -0.0041,0.015 -0.0041,0.0068 -0.01363,0.01091 -0.0082,0.0041 -0.02454,0.0068 -0.015,0.0027 -0.03817,0.0027 -0.02454,0 -0.0409,-0.0027 -0.015,-0.0027 -0.02454,-0.0068 -0.0082,-0.0041 -0.01227,-0.01091 -0.0041,-0.0068 -0.0041,-0.015 v -0.73215 q 0,-0.1145263 -0.01772,-0.1854235 -0.01772,-0.072261 -0.05317,-0.1227067 -0.03545,-0.05181 -0.09135,-0.079078 -0.05454,-0.028632 -0.128161,-0.028632 -0.09408,0 -0.18815,0.066807 -0.09408,0.066807 -0.197694,0.1963308 v 0.8848517 q 0,0.0082 -0.0041,0.015 -0.0041,0.0068 -0.01363,0.01091 -0.0082,0.0041 -0.02454,0.0068 -0.015,0.0027 -0.03954,0.0027 -0.02318,0 -0.03954,-0.0027 -0.015,-0.0027 -0.02454,-0.0068 -0.0095,-0.0041 -0.01363,-0.01091 -0.0027,-0.0068 -0.0027,-0.015 V 9.5116498 q 0,-0.00818 0.0027,-0.014998 0.0041,-0.00682 0.01363,-0.010907 0.0095,-0.00545 0.02318,-0.00682 0.015,-0.00273 0.03818,-0.00273 0.02318,0 0.03818,0.00273 0.015,0.00136 0.02318,0.00682 0.0082,0.00409 0.01091,0.010907 0.0041,0.00682 0.0041,0.014998 V 9.686166 q 0.106345,-0.1186165 0.208601,-0.1717894 0.102256,-0.053173 0.203148,-0.053173 0.121343,0 0.204511,0.040902 0.08317,0.040902 0.133614,0.1104361 0.05181,0.069534 0.07362,0.1622456 0.02318,0.092712 0.02318,0.2235989 z"
         id="path7116" />
      <path
         d="m 15.388878,10.745534 q 0,0.0082 -0.0041,0.015 -0.0041,0.0068 -0.01363,0.01091 -0.0082,0.0041 -0.02454,0.0068 -0.015,0.0027 -0.03954,0.0027 -0.02318,0 -0.03954,-0.0027 -0.015,-0.0027 -0.02454,-0.0068 -0.0095,-0.0041 -0.01363,-0.01091 -0.0027,-0.0068 -0.0027,-0.015 V 9.5116498 q 0,-0.00818 0.0027,-0.014998 0.0041,-0.00682 0.01363,-0.010907 0.0095,-0.00545 0.02454,-0.00682 0.01636,-0.00273 0.03954,-0.00273 0.02454,0 0.03954,0.00273 0.01636,0.00136 0.02454,0.00682 0.0095,0.00409 0.01363,0.010907 0.0041,0.00682 0.0041,0.014998 z m 0.02454,-1.6497237 q 0,0.065444 -0.02318,0.088622 -0.02318,0.023178 -0.08453,0.023178 -0.05999,0 -0.08317,-0.021815 -0.02182,-0.023178 -0.02182,-0.088621 0,-0.065444 0.02318,-0.088622 0.02318,-0.023178 0.08453,-0.023178 0.05999,0 0.08181,0.023178 0.02318,0.021814 0.02318,0.087258 z"
         id="path7118" />
      <path
         d="m 16.919986,10.110186 q 0,0.158155 -0.03545,0.284952 -0.03409,0.126797 -0.102256,0.215419 -0.06681,0.08862 -0.166335,0.137704 -0.09953,0.04772 -0.22769,0.04772 -0.05454,0 -0.102255,-0.01227 -0.04772,-0.01091 -0.09408,-0.03545 -0.04499,-0.02454 -0.09135,-0.06135 -0.04499,-0.03681 -0.09544,-0.08862 v 0.636712 q 0,0.0082 -0.0041,0.015 -0.0041,0.0068 -0.01363,0.01091 -0.0082,0.0055 -0.02454,0.0068 -0.015,0.0027 -0.03954,0.0027 -0.02318,0 -0.03954,-0.0027 -0.015,-0.0014 -0.02454,-0.0068 -0.0095,-0.0041 -0.01363,-0.01091 -0.0027,-0.0068 -0.0027,-0.015 V 9.5116498 q 0,-0.00954 0.0027,-0.016361 0.0041,-0.00682 0.01227,-0.010907 0.0095,-0.00409 0.02318,-0.00545 0.015,-0.00273 0.03545,-0.00273 0.02045,0 0.03408,0.00273 0.01363,0.00136 0.02318,0.00545 0.0095,0.00409 0.01363,0.010907 0.0041,0.00682 0.0041,0.016361 v 0.1786065 q 0.05726,-0.058627 0.109072,-0.1008922 0.05181,-0.043629 0.103619,-0.072261 0.05181,-0.028631 0.106346,-0.042266 0.05454,-0.013634 0.11589,-0.013634 0.133614,0 0.227689,0.051809 0.09408,0.050446 0.152702,0.1390676 0.05999,0.088622 0.08589,0.2072381 0.02727,0.1172531 0.02727,0.2508671 z m -0.170426,0.0259 q 0,-0.103619 -0.01636,-0.1990579 -0.01636,-0.096802 -0.0559,-0.1717894 -0.03818,-0.074987 -0.103619,-0.1199799 -0.06408,-0.044993 -0.162246,-0.044993 -0.04908,0 -0.0968,0.013634 -0.04636,0.013634 -0.09544,0.044992 -0.04908,0.031358 -0.102256,0.081805 -0.05317,0.049083 -0.111799,0.1227067 v 0.5371829 q 0.102255,0.12407 0.194967,0.190877 0.09407,0.06544 0.196331,0.06544 0.09408,0 0.160882,-0.04499 0.06817,-0.04636 0.110436,-0.11998 0.04227,-0.07499 0.06135,-0.167699 0.02045,-0.09408 0.02045,-0.18815 z"
         id="path7120" />
      <path
         d="m 18.15796,10.745534 q 0,0.01363 -0.0095,0.02182 -0.0082,0.0068 -0.02318,0.0095 -0.01363,0.0041 -0.03817,0.0041 -0.02318,0 -0.03954,-0.0041 -0.01636,-0.0027 -0.0259,-0.0095 -0.0082,-0.0082 -0.0082,-0.02182 V 10.60783 q -0.08317,0.08999 -0.18406,0.139068 -0.09953,0.04908 -0.207238,0.04908 -0.0968,0 -0.174517,-0.02454 -0.07635,-0.02591 -0.129523,-0.07226 -0.05317,-0.04772 -0.0818,-0.114526 -0.02863,-0.06681 -0.02863,-0.149975 0,-0.102255 0.04227,-0.177243 0.04227,-0.07635 0.11998,-0.126797 0.07771,-0.05045 0.186787,-0.07499 0.109073,-0.0259 0.242687,-0.0259 h 0.196331 V 9.9233991 q 0,-0.079078 -0.01636,-0.1390677 -0.01636,-0.061353 -0.05317,-0.1022556 -0.03681,-0.040902 -0.09544,-0.061353 -0.05863,-0.020451 -0.143158,-0.020451 -0.0818,0 -0.147248,0.020451 -0.06544,0.019088 -0.114526,0.043629 -0.04908,0.024541 -0.0818,0.044992 -0.03136,0.019088 -0.04499,0.019088 -0.0082,0 -0.015,-0.00273 -0.0068,-0.00273 -0.01227,-0.00954 -0.0041,-0.00818 -0.0068,-0.019088 -0.0014,-0.012271 -0.0014,-0.028632 0,-0.028632 0.0041,-0.044992 0.0041,-0.017724 0.02045,-0.034085 0.01772,-0.017724 0.06135,-0.040902 0.04363,-0.023178 0.09953,-0.042266 0.05726,-0.020451 0.122707,-0.032722 0.06544,-0.012271 0.130887,-0.012271 0.126797,0 0.214055,0.031358 0.08726,0.029995 0.140431,0.087258 0.05454,0.057263 0.07771,0.1417945 0.02318,0.083168 0.02318,0.1895137 z m -0.162245,-0.582175 h -0.224963 q -0.09817,0 -0.171789,0.01772 -0.07362,0.01773 -0.122707,0.05181 -0.04908,0.03408 -0.07362,0.0818 -0.02318,0.04772 -0.02318,0.109073 0,0.106346 0.06681,0.170426 0.06817,0.06272 0.190877,0.06272 0.0968,0 0.17997,-0.04908 0.08453,-0.05045 0.178607,-0.154065 z"
         id="path7122" />
      <path
         d="m 19.469559,10.562837 q 0,0.01636 -0.0014,0.02999 -0.0014,0.01227 -0.0041,0.02182 -0.0027,0.0095 -0.0082,0.01772 -0.0041,0.0068 -0.02182,0.02454 -0.01772,0.01772 -0.05999,0.04499 -0.0409,0.02727 -0.09271,0.04772 -0.05181,0.02045 -0.1118,0.03272 -0.05999,0.01363 -0.12407,0.01363 -0.12816,0 -0.227689,-0.04227 -0.09817,-0.04363 -0.164972,-0.126797 -0.06681,-0.08453 -0.102256,-0.205875 -0.03409,-0.122707 -0.03409,-0.282225 0,-0.1799703 0.04227,-0.3081307 0.04363,-0.1281604 0.118617,-0.2099649 0.07499,-0.081804 0.174516,-0.1199799 0.100892,-0.039539 0.215419,-0.039539 0.06135,0 0.117253,0.012271 0.0559,0.010907 0.102255,0.029995 0.04772,0.019088 0.08453,0.043629 0.03681,0.024541 0.05317,0.042266 0.01772,0.016361 0.02318,0.025905 0.0068,0.00818 0.0095,0.019088 0.0041,0.010907 0.0055,0.024541 0.0014,0.012271 0.0014,0.029995 0,0.039539 -0.01227,0.0559 -0.01091,0.014997 -0.02454,0.014997 -0.01909,0 -0.04772,-0.024541 -0.02727,-0.024541 -0.0709,-0.053173 -0.04363,-0.029995 -0.106346,-0.054536 -0.06135,-0.024541 -0.147248,-0.024541 -0.177243,0 -0.274045,0.1363409 -0.09544,0.1363408 -0.09544,0.394025 0,0.129524 0.02591,0.227689 0.0259,0.0968 0.07362,0.162246 0.04908,0.06408 0.118617,0.0968 0.06953,0.03136 0.156792,0.03136 0.0818,0 0.144521,-0.0259 0.06272,-0.0259 0.109073,-0.05726 0.04636,-0.03136 0.07635,-0.05726 0.03136,-0.0259 0.04636,-0.0259 0.0082,0 0.01363,0.0055 0.0068,0.0041 0.01091,0.015 0.0041,0.0095 0.0055,0.02454 0.0027,0.01363 0.0027,0.03272 z"
         id="path7124" />
      <path
         d="m 19.957659,10.745534 q 0,0.0082 -0.0041,0.015 -0.0041,0.0068 -0.01363,0.01091 -0.0082,0.0041 -0.02454,0.0068 -0.015,0.0027 -0.03954,0.0027 -0.02318,0 -0.03954,-0.0027 -0.015,-0.0027 -0.02454,-0.0068 -0.0095,-0.0041 -0.01363,-0.01091 -0.0027,-0.0068 -0.0027,-0.015 V 9.5116498 q 0,-0.00818 0.0027,-0.014998 0.0041,-0.00682 0.01363,-0.010907 0.0095,-0.00545 0.02454,-0.00682 0.01636,-0.00273 0.03954,-0.00273 0.02454,0 0.03954,0.00273 0.01636,0.00136 0.02454,0.00682 0.0095,0.00409 0.01363,0.010907 0.0041,0.00682 0.0041,0.014998 z M 19.9822,9.0958103 q 0,0.065444 -0.02318,0.088622 -0.02318,0.023178 -0.08453,0.023178 -0.05999,0 -0.08317,-0.021815 -0.02181,-0.023178 -0.02181,-0.088621 0,-0.065444 0.02318,-0.088622 0.02318,-0.023178 0.08453,-0.023178 0.05999,0 0.0818,0.023178 0.02318,0.021814 0.02318,0.087258 z"
         id="path7126" />
      <path
         d="m 21.421959,9.0971737 q 0,0.031358 -0.0055,0.053173 -0.0041,0.020451 -0.01636,0.034085 -0.01091,0.012271 -0.03136,0.017724 -0.02045,0.00545 -0.05181,0.00545 -0.03136,0 -0.05181,-0.00545 -0.02045,-0.00545 -0.03272,-0.017724 -0.01227,-0.013634 -0.01772,-0.034085 -0.0041,-0.021815 -0.0041,-0.053173 0,-0.031358 0.0041,-0.05181 0.0055,-0.021814 0.01772,-0.035449 0.01227,-0.013634 0.03272,-0.019088 0.02045,-0.00545 0.05181,-0.00545 0.03136,0 0.05181,0.00545 0.02045,0.00545 0.03136,0.019088 0.01227,0.013634 0.01636,0.035449 0.0055,0.020451 0.0055,0.05181 z m -0.02454,1.6483603 q 0,0.0082 -0.0041,0.015 -0.0041,0.0068 -0.01363,0.01091 -0.0082,0.0041 -0.02454,0.0068 -0.015,0.0027 -0.03817,0.0027 -0.02454,0 -0.0409,-0.0027 -0.015,-0.0027 -0.02454,-0.0068 -0.0082,-0.0041 -0.01227,-0.01091 -0.0041,-0.0068 -0.0041,-0.015 V 9.6207224 h -0.605353 v 1.1248116 q 0,0.0082 -0.0041,0.015 -0.0041,0.0068 -0.01363,0.01091 -0.0082,0.0041 -0.02454,0.0068 -0.015,0.0027 -0.03954,0.0027 -0.02318,0 -0.03954,-0.0027 -0.015,-0.0027 -0.02454,-0.0068 -0.0095,-0.0041 -0.01363,-0.01091 -0.0027,-0.0068 -0.0027,-0.015 V 9.6207224 H 20.28215 q -0.01909,0 -0.03,-0.016361 -0.0095,-0.017724 -0.0095,-0.05181 0,-0.017724 0.0027,-0.029995 0.0027,-0.013634 0.0068,-0.021815 0.0055,-0.00954 0.01227,-0.013634 0.0082,-0.00409 0.01772,-0.00409 h 0.185424 V 9.3371336 q 0,-0.1281604 0.02318,-0.2181454 0.02454,-0.089985 0.0709,-0.1458846 0.04636,-0.057263 0.113163,-0.083168 0.06817,-0.025905 0.154065,-0.025905 0.03,0 0.05863,0.00273 0.02863,0.00273 0.05181,0.00818 0.02454,0.00409 0.0409,0.010907 0.01772,0.00545 0.02318,0.012271 0.0068,0.00545 0.01091,0.012271 0.0041,0.00682 0.0055,0.016361 0.0027,0.00818 0.0041,0.020451 0.0014,0.012271 0.0014,0.028632 0,0.029995 -0.0068,0.044993 -0.0055,0.014997 -0.02045,0.014997 -0.01091,0 -0.02318,-0.00409 -0.01227,-0.00545 -0.03272,-0.010907 -0.01909,-0.00682 -0.04772,-0.012271 -0.02863,-0.00545 -0.0709,-0.00545 -0.106346,0 -0.149975,0.080441 -0.04363,0.079078 -0.04363,0.253594 v 0.1458846 h 0.717153 q 0.02727,0 0.03817,0.016361 0.01227,0.014997 0.01227,0.039539 z"
         id="path7128" />
      <path
         d="m 22.714471,10.562837 q 0,0.01636 -0.0014,0.02999 -0.0014,0.01227 -0.0041,0.02182 -0.0027,0.0095 -0.0082,0.01772 -0.0041,0.0068 -0.02182,0.02454 -0.01772,0.01772 -0.05999,0.04499 -0.0409,0.02727 -0.09271,0.04772 -0.05181,0.02045 -0.111799,0.03272 -0.05999,0.01363 -0.12407,0.01363 -0.128161,0 -0.227689,-0.04227 -0.09817,-0.04363 -0.164973,-0.126797 -0.06681,-0.08453 -0.102255,-0.205875 -0.03409,-0.122707 -0.03409,-0.282225 0,-0.1799703 0.04227,-0.3081307 0.04363,-0.1281604 0.118617,-0.2099649 0.07499,-0.081804 0.174516,-0.1199799 0.100892,-0.039539 0.215418,-0.039539 0.06135,0 0.117253,0.012271 0.0559,0.010907 0.102256,0.029995 0.04772,0.019088 0.08453,0.043629 0.03681,0.024541 0.05317,0.042266 0.01772,0.016361 0.02318,0.025905 0.0068,0.00818 0.0095,0.019088 0.0041,0.010907 0.0055,0.024541 0.0014,0.012271 0.0014,0.029995 0,0.039539 -0.01227,0.0559 -0.01091,0.014997 -0.02454,0.014997 -0.01909,0 -0.04772,-0.024541 -0.02727,-0.024541 -0.0709,-0.053173 -0.04363,-0.029995 -0.106346,-0.054536 -0.06135,-0.024541 -0.147248,-0.024541 -0.177243,0 -0.274045,0.1363409 -0.09544,0.1363408 -0.09544,0.394025 0,0.129524 0.02591,0.227689 0.0259,0.0968 0.07362,0.162246 0.04908,0.06408 0.118616,0.0968 0.06953,0.03136 0.156792,0.03136 0.08181,0 0.144522,-0.0259 0.06272,-0.0259 0.109072,-0.05726 0.04636,-0.03136 0.07635,-0.05726 0.03136,-0.0259 0.04636,-0.0259 0.0082,0 0.01363,0.0055 0.0068,0.0041 0.01091,0.015 0.0041,0.0095 0.0055,0.02454 0.0027,0.01363 0.0027,0.03272 z"
         id="path7130" />
      <path
         d="m 24.105147,10.11564 q 0,0.147248 -0.03817,0.271318 -0.03818,0.12407 -0.114527,0.215418 -0.07499,0.09135 -0.18815,0.143158 -0.113163,0.05045 -0.263138,0.05045 -0.144521,0 -0.253594,-0.04499 -0.107709,-0.04636 -0.181333,-0.130887 -0.07226,-0.0859 -0.109073,-0.207238 -0.03545,-0.121344 -0.03545,-0.274045 0,-0.1472485 0.03681,-0.2713187 0.03817,-0.1240701 0.113163,-0.2140551 0.07635,-0.091348 0.189513,-0.1417944 0.113163,-0.050446 0.264501,-0.050446 0.144522,0 0.252231,0.044992 0.109073,0.044992 0.181333,0.1308871 0.07226,0.084531 0.109073,0.2058747 0.03681,0.1213433 0.03681,0.272682 z m -0.171789,0.015 q 0,-0.104982 -0.02045,-0.2004209 -0.02045,-0.095439 -0.06817,-0.1676992 -0.04772,-0.073624 -0.12816,-0.1158897 -0.08044,-0.043629 -0.200421,-0.043629 -0.110436,0 -0.190878,0.039539 -0.08044,0.039539 -0.13225,0.110436 -0.05045,0.069534 -0.07499,0.1649724 -0.02454,0.095439 -0.02454,0.2058746 0,0.106346 0.02045,0.203148 0.02045,0.09544 0.06817,0.167699 0.04772,0.07226 0.12816,0.114526 0.08044,0.04227 0.200421,0.04227 0.110436,0 0.190877,-0.03954 0.08044,-0.03954 0.130887,-0.109072 0.05181,-0.06953 0.07635,-0.164973 0.02454,-0.09544 0.02454,-0.207238 z"
         id="path7132" />
    </g>
    <path
       d="m 6.02433,5.1421274 -2.72041,1.575351 c 0,0 -0.12085,-0.987648 0.54002,-1.484199 0.54719,-0.411201 1.8347,-1.099572 1.8347,-1.099572"
       style="fill:url(#linearGradient4257);fill-opacity:1;fill-rule:evenodd;stroke:none;stroke-width:0.00580219"
       id="path2436" />
    <path
       d="m 1.17098,6.7791554 c 0.0662,0.223442 0.15942,0.442649 0.28097,0.653152 0.053,0.09179 0.11015,0.17981 0.17102,0.263767 l -1.08274998,0.627101 c 0,0 -0.1185,-0.983703 0.54256998,-1.479789 0.0276,-0.02072 0.0571,-0.04218 0.0882,-0.06423"
       style="fill:#edba37;fill-opacity:1;fill-rule:evenodd;stroke:none;stroke-width:0.00580219"
       id="path2438" />
    <path
       d="M 7.50302,5.0191784 C 7.70674,6.2367094 7.03536,7.7305404 5.90389,8.3838664 4.44777,9.2245454 2.583,8.7248024 1.74232,7.2687444 0.90163002,5.8126284 1.40135,3.9479204 2.85745,3.1072414 c 1.45611,-0.840678 3.32082,-0.341052 4.1615,1.115065 0.0133,0.02303 0.12974,0.22379 0.13472,0.27044 L 5.9702,5.1713704 C 5.9493,5.1266304 5.8741,4.9412554 5.84905,4.8977974 5.3811,4.0874054 4.30398,3.7183284 3.4936,4.1862164 c -0.81045,0.467889 -1.16027,1.625077 -0.69238,2.435468 0.46789,0.810333 1.66924,1.198094 2.47962,0.730205 0.26331,-0.152075 0.74756,-0.514944 0.96218,-1.065688 0.29562,-0.758635 0.58005,-0.992696 1.26,-1.267023"
       style="fill:#4f7942;fill-opacity:1;fill-rule:evenodd;stroke:none;stroke-width:0.00580219"
       id="path2440" />
  </g>
</svg>
