<?xml version="1.0" encoding="UTF-8" standalone="no"?>
<!-- Created with Inkscape (http://www.inkscape.org/) -->

<svg
   version="1.1"
   id="svg2"
   width="2933.3333"
   height="2933.3333"
   viewBox="0 0 2933.3333 2933.3333"
   sodipodi:docname="cartoon_style_dice.svg"
   inkscape:version="1.2.2 (732a01da63, 2022-12-09)"
   xmlns:inkscape="http://www.inkscape.org/namespaces/inkscape"
   xmlns:sodipodi="http://sodipodi.sourceforge.net/DTD/sodipodi-0.dtd"
   xmlns="http://www.w3.org/2000/svg"
   xmlns:svg="http://www.w3.org/2000/svg">
  <defs
     id="defs6" />
  <sodipodi:namedview
     id="namedview4"
     pagecolor="#ffffff"
     bordercolor="#000000"
     borderopacity="0.25"
     inkscape:showpageshadow="2"
     inkscape:pageopacity="0.0"
     inkscape:pagecheckerboard="0"
     inkscape:deskcolor="#d1d1d1"
     showgrid="false"
     inkscape:zoom="3.228264"
     inkscape:cx="722.9892"
     inkscape:cy="352.51144"
     inkscape:window-width="1920"
     inkscape:window-height="1017"
     inkscape:window-x="1912"
     inkscape:window-y="-8"
     inkscape:window-maximized="1"
     inkscape:current-layer="g10">
    <inkscape:page
       x="0"
       y="0"
       id="page8"
       width="2933.3333"
       height="2933.3333" />
  </sodipodi:namedview>
  <g
     id="g10"
     inkscape:groupmode="layer"
     inkscape:label="Page 1"
     transform="matrix(1.3333333,0,0,-1.3333333,0,2933.3333)">
    <rect
       style="opacity:1;fill:#89cff0;fill-opacity:1;stroke-width:2.51276"
       id="rect4851"
       width="187.5"
       height="60.131329"
       x="426.46356"
       y="-1965.7864"
       transform="scale(1,-1)" />
    <g
       id="g4795"
       transform="matrix(0.27596548,0,0,0.27596548,330.31982,1395.3292)">
      <path
         d="m 526.30564,1984.3518 -1.97151,-1.1479 -49.81659,-28.9808 c -2.84303,-1.6494 -6.01899,-2.4753 -9.19495,-2.4753 -3.17596,0 -6.35192,0.8259 -9.19495,2.4753 l -49.81659,28.9808 -1.97173,1.1479 c -4.26867,2.4829 -4.26867,8.6498 0,11.1338 l 51.76874,30.1189 c 2.84846,1.657 6.03095,2.485 9.21453,2.485 3.18358,0 6.36607,-0.828 9.21453,-2.485 l 51.76852,-30.1189 c 4.26835,-2.484 4.26835,-8.6509 0,-11.1338"
         style="fill:#e2ede9;fill-opacity:1;fill-rule:nonzero;stroke:none;stroke-width:0.0108803"
         id="path18" />
      <path
         d="m 465.32259,1944.5712 v -64.0883 c 0,-5.7666 -6.2453,-9.3636 -11.2312,-6.476 -0.004,0 -0.008,0.01 -0.0127,0.01 l -49.90145,29.033 c -5.64003,3.2804 -9.109,9.3135 -9.109,15.8384 v 57.9529 c 0.0726,5.71 6.28523,9.2494 11.24284,6.365 l 49.81659,-28.9808 5.47497,-3.1857 c 2.30228,-1.3394 3.71998,-3.8027 3.71998,-6.4662"
         style="fill:#c9e0da;fill-opacity:1;fill-rule:nonzero;stroke:none;stroke-width:0.0108803"
         id="path20" />
      <path
         d="m 535.57675,1976.8389 v -57.9529 c 0,-6.5249 -3.46864,-12.558 -9.10899,-15.8384 l -49.90146,-29.033 c -0.004,0 -0.009,-0.01 -0.0131,-0.01 -4.98536,-2.8876 -11.23066,0.7094 -11.23066,6.476 v 64.0883 c 0,2.6635 1.4177,5.1268 3.71998,6.4662 l 5.47497,3.1857 8.1537,4.7427 41.66289,24.2381 c 4.95707,2.8844 11.17081,-0.655 11.24262,-6.365"
         style="fill:#a8beb8;fill-opacity:1;fill-rule:nonzero;stroke:none;stroke-width:0.0108803"
         id="path22" />
      <path
         d="m 526.30564,1984.3518 -1.97151,-1.1479 -3.02473,-1.7593 c 0,0 -5.98635,15.9048 -31.96961,35.5481 l 36.96585,-21.5071 c 4.26835,-2.484 4.26835,-8.6509 0,-11.1338"
         style="fill:#c9e0da;fill-opacity:1;fill-rule:nonzero;stroke:none;stroke-width:0.0108803"
         id="path24" />
      <path
         d="m 465.32259,1880.4829 c 0,-5.7666 -6.2453,-9.3636 -11.2312,-6.476 -0.004,0 -0.008,0.01 -0.0127,0.01 l -35.4573,20.629 c 0.80939,-0.4406 27.57669,-14.9528 46.70123,-14.1607"
         style="fill:#b1c7c2;fill-opacity:1;fill-rule:nonzero;stroke:none;stroke-width:0.0108803"
         id="path26" />
      <path
         d="m 535.57675,1976.8389 v -57.9529 c 0,-6.5249 -3.46864,-12.558 -9.10899,-15.8384 l -49.90146,-29.033 c -0.004,0 -0.009,-0.01 -0.0131,-0.01 -4.98536,-2.8876 -11.23066,0.7094 -11.23066,6.476 12.36221,0.5103 31.67476,15.2857 44.07831,25.9572 7.55855,6.5031 11.9085,15.9755 11.9085,25.9462 v 49.0583 l 3.02473,1.7593 c 4.95707,2.8844 11.17081,-0.655 11.24262,-6.365"
         style="fill:#8d9f9c;fill-opacity:1;fill-rule:nonzero;stroke:none;stroke-width:0.0108803"
         id="path28" />
      <path
         d="m 461.08689,2019.5985 -27.10536,-15.3445 c -0.85606,-0.4852 -0.94223,-1.6853 -0.16397,-2.287 v 0 c 0.35144,-0.272 0.81211,-0.358 1.23764,-0.2296 4.51837,1.3557 30.59054,9.0285 45.42257,10.1285 1.45905,0.1077 1.8366,2.0771 0.52117,2.719 l -10.81938,5.2889 c -2.8909,1.4134 -6.29317,1.31 -9.09267,-0.2753"
         style="fill:#ffffff;fill-opacity:1;fill-rule:nonzero;stroke:none;stroke-width:0.0108803"
         id="path30" />
      <path
         d="m 414.33387,1972.5249 c 1.0457,-0.6093 0.83093,-2.175 -0.33882,-2.4873 -10.00455,-2.6624 -10.90794,-19.1308 -11.71722,-22.9248 -0.0422,-0.1991 -0.13274,-0.383 -0.25862,-0.5375 -0.12589,-0.1545 -0.28812,-0.2796 -0.47591,-0.3612 -0.83191,-0.3612 -1.76413,0.2405 -1.77588,1.1468 l -0.3225,28.1996 c -0.0286,2.5025 2.68298,4.0812 4.84555,2.8202 l 10.0434,-5.8558"
         style="fill:#ffffff;fill-opacity:1;fill-rule:nonzero;stroke:none;stroke-width:0.0108803"
         id="path32" />
      <path
         d="m 402.84644,1939.8219 c 0,-0.9389 -0.76152,-1.7006 -1.70092,-1.7006 -0.9393,0 -1.70081,0.7617 -1.70081,1.7006 0,0.939 0.76151,1.7006 1.70081,1.7006 0.9394,0 1.70092,-0.7616 1.70092,-1.7006"
         style="fill:#ffffff;fill-opacity:1;fill-rule:nonzero;stroke:none;stroke-width:0.0108803"
         id="path34" />
      <path
         d="m 429.04655,1998.4004 c -0.9986,-0.5766 -2.1889,-0.384 -2.65861,0.4287 -0.4697,0.8139 -0.0408,1.9411 0.9578,2.5177 0.9987,0.5767 2.18901,0.3841 2.6586,-0.4298 0.46971,-0.8127 0.0409,-1.9399 -0.95779,-2.5166"
         style="fill:#ffffff;fill-opacity:1;fill-rule:nonzero;stroke:none;stroke-width:0.0108803"
         id="path36" />
      <path
         d="m 525.14145,1905.3596 -44.81818,-26.0746 -5.09742,-2.966 c -1.50801,-0.877 -3.31088,-0.8813 -4.82216,-0.012 -1.51236,0.8705 -2.41542,2.4307 -2.41542,4.1748 v 64.0883 c 0,1.7093 0.91721,3.3043 2.39475,4.1628 l 5.47389,3.1858 c 0.008,0 0.0141,0.01 0.0207,0.011 l 12.97803,7.551 36.81897,21.419 c 1.50801,0.8769 3.31088,0.8823 4.82215,0.012 1.50584,-0.8661 2.40673,-2.4165 2.41435,-4.1519 v -57.8735 c 0,-5.55 -2.97686,-10.7312 -7.76963,-13.5264 z m -127.40778,13.5264 v 57.867 c 0.006,1.7376 0.90687,3.2913 2.41423,4.1584 1.51226,0.8704 3.31491,0.865 4.82281,-0.012 l 10.43704,-6.0713 39.35985,-22.8987 c 0.007,0 0.012,-0.01 0.0185,-0.011 l 5.47606,-3.1858 c 1.47754,-0.8585 2.39475,-2.4535 2.39475,-4.1628 v -64.0883 c 0,-1.7441 -0.90306,-3.3043 -2.41542,-4.1748 -1.51237,-0.8693 -3.31524,-0.865 -4.82216,0.012 l -49.91527,29.0406 c -4.79321,2.7952 -7.77039,7.9764 -7.77039,13.5264 z m 59.71484,104.414 c 2.42848,1.4134 5.15183,2.1195 7.87408,2.1195 2.72225,0 5.4456,-0.7061 7.87408,-2.1195 l 51.76852,-30.1189 h -10e-4 c 1.17507,-0.6843 1.87685,-1.904 1.87685,-3.263 0,-1.3546 -0.69852,-2.571 -1.86706,-3.2564 l -38.69365,-22.5114 -13.10533,-7.6238 c -4.845,-2.8104 -10.85746,-2.8104 -15.70355,0 l -44.76062,26.0398 -7.03107,4.091 v 0 c -1.17475,0.6833 -1.8762,1.903 -1.8762,3.2619 0,1.359 0.70134,2.5787 1.8762,3.263 h -2.2e-4 z m 80.79501,-46.5634 c 0,0.015 0,0.031 0,0.046 v 2.7713 c 0,7.4454 -3.99852,14.3979 -10.43422,18.1418 l -51.93172,30.2135 c -6.51078,3.7885 -14.5992,3.7885 -21.10998,0 l -51.9315,-30.2135 c -6.43614,-3.7439 -10.43422,-10.6964 -10.43422,-18.1418 v -2.7778 c -1.1e-4,-0.013 -6.5e-4,-0.026 -6.5e-4,-0.039 v -57.9343 h 0.002 c 0.0295,-7.3856 3.99122,-14.275 10.36077,-18.0157 l -5.4e-4,-10e-4 0.0593,-0.035 c 0.005,0 0.009,-0.01 0.0134,-0.01 l 51.9315,-30.2135 c 3.25539,-1.8943 6.90465,-2.8409 10.55499,-2.8409 3.65034,0 7.2996,0.9466 10.55499,2.8409 l 51.93172,30.2135 c 0.004,0 0.009,0.01 0.0131,0.01 l 0.0598,0.035 -10e-4,10e-4 c 6.36933,3.7407 10.33085,10.629 10.36023,18.0157 h 0.002 v 57.9343"
         style="fill:#131c32;fill-opacity:1;fill-rule:nonzero;stroke:none;stroke-width:0.0108803"
         id="path38" />
      <path
         d="m 414.32767,1946.3882 c 4.04649,-2.336 7.33811,-0.4624 7.35128,4.1889 0.0133,4.6492 -3.25713,10.3146 -7.30352,12.6506 -4.04639,2.336 -7.33812,0.4602 -7.35128,-4.189 -0.0132,-4.6513 3.25713,-10.3145 7.30352,-12.6505"
         style="fill:#131c32;fill-opacity:1;fill-rule:nonzero;stroke:none;stroke-width:0.0108803"
         id="path40" />
      <path
         d="m 444.67731,1928.8655 c 4.04639,-2.336 7.33812,-0.4625 7.35128,4.1889 0.0132,4.6502 -3.25713,10.3145 -7.30351,12.6505 -4.04781,2.3371 -7.33812,0.4603 -7.3514,-4.1889 -0.0132,-4.6513 3.25583,-10.3135 7.30363,-12.6505"
         style="fill:#131c32;fill-opacity:1;fill-rule:nonzero;stroke:none;stroke-width:0.0108803"
         id="path42" />
      <path
         d="m 414.22887,1911.5135 c 4.04639,-2.336 7.33812,-0.4602 7.35128,4.19 0.0132,4.6492 -3.25713,10.3135 -7.30362,12.6495 -4.04639,2.3371 -7.33812,0.4613 -7.35128,-4.1889 -0.0132,-4.6492 3.25713,-10.3146 7.30362,-12.6506"
         style="fill:#131c32;fill-opacity:1;fill-rule:nonzero;stroke:none;stroke-width:0.0108803"
         id="path44" />
      <path
         d="m 444.57841,1893.9919 c 4.04649,-2.3371 7.33811,-0.4602 7.35139,4.1889 0.0132,4.6492 -3.25724,10.3145 -7.30363,12.6505 -4.0478,2.3371 -7.33811,0.4603 -7.35128,-4.19 -0.0132,-4.6491 3.25572,-10.3123 7.30352,-12.6494"
         style="fill:#131c32;fill-opacity:1;fill-rule:nonzero;stroke:none;stroke-width:0.0108803"
         id="path46" />
      <path
         d="m 429.45478,1920.7868 c 4.04638,-2.336 7.33811,-0.4613 7.35128,4.19 0.0132,4.6492 -3.25713,10.3135 -7.30352,12.6495 -4.04649,2.3371 -7.33811,0.4602 -7.35139,-4.1889 -0.0132,-4.6514 3.25713,-10.3135 7.30363,-12.6506"
         style="fill:#131c32;fill-opacity:1;fill-rule:nonzero;stroke:none;stroke-width:0.0108803"
         id="path48" />
      <path
         d="m 516.26964,1963.2277 c -4.04639,-2.336 -7.31701,-8.0014 -7.30395,-12.6506 0.0141,-4.6513 3.30544,-6.5249 7.35182,-4.1889 4.04639,2.336 7.31701,7.9992 7.30396,12.6505 -0.0142,4.6492 -3.30544,6.525 -7.35183,4.189"
         style="fill:#131c32;fill-opacity:1;fill-rule:nonzero;stroke:none;stroke-width:0.0108803"
         id="path50" />
      <path
         d="m 486.01912,1910.8313 c -4.04639,-2.336 -7.31701,-8.0013 -7.30396,-12.6505 0.0131,-4.6491 3.30544,-6.526 7.35183,-4.1889 4.04747,2.3371 7.31592,8.0003 7.30286,12.6494 -0.013,4.6503 -3.30326,6.5271 -7.35073,4.19"
         style="fill:#131c32;fill-opacity:1;fill-rule:nonzero;stroke:none;stroke-width:0.0108803"
         id="path52" />
      <path
         d="m 501.14275,1937.6263 c -4.04639,-2.336 -7.31701,-8.0003 -7.30396,-12.6495 0.0131,-4.6513 3.30544,-6.526 7.35183,-4.19 4.04639,2.3371 7.31701,7.9992 7.30286,12.6506 -0.013,4.6491 -3.30435,6.526 -7.35073,4.1889"
         style="fill:#131c32;fill-opacity:1;fill-rule:nonzero;stroke:none;stroke-width:0.0108803"
         id="path54" />
      <path
         d="m 457.949,1985.5943 c 4.04639,-2.336 10.58763,-2.336 14.60682,0 4.02027,2.336 3.9996,6.1245 -0.0468,8.4616 -4.04856,2.336 -10.58762,2.336 -14.6079,0 -4.01962,-2.336 -3.99971,-6.1234 0.0479,-8.4605"
         style="fill:#131c32;fill-opacity:1;fill-rule:nonzero;stroke:none;stroke-width:0.0108803"
         id="path56" />
    </g>
    <rect
       style="opacity:1;fill:#ff7043;fill-opacity:1;stroke-width:1.19347"
       id="rect4905"
       width="187.49998"
       height="2.25"
       x="426.46356"
       y="-1907.905"
       transform="scale(1,-1)" />
    <rect
       style="fill:#ff7043;fill-opacity:1;stroke-width:0.985291"
       id="rect4905-4"
       width="127.79297"
       height="2.25"
       x="479.6232"
       y="-1890.9738"
       transform="scale(1,-1)" />
    <text
       xml:space="preserve"
       style="font-style:normal;font-variant:normal;font-weight:bold;font-stretch:normal;font-size:39.0625px;line-height:117.187px;font-family:'Niagara Solid';-inkscape-font-specification:'Niagara Solid Bold';text-align:end;text-anchor:end;fill:#131c32;fill-opacity:1;stroke-width:1.43537"
       x="534.57233"
       y="-1928.3949"
       id="text393"
       transform="scale(1,-1)"><tspan
         sodipodi:role="line"
         id="tspan391"
         style="font-style:normal;font-variant:normal;font-weight:bold;font-stretch:normal;font-size:39.0625px;font-family:'Niagara Solid';-inkscape-font-specification:'Niagara Solid Bold';fill:#131c32;fill-opacity:1;stroke-width:1.43537"
         x="534.57233"
         y="-1928.3949">Aaay!</tspan></text>
    <text
       xml:space="preserve"
       style="font-style:normal;font-variant:normal;font-weight:normal;font-stretch:normal;font-size:10.0206px;line-height:2.50516px;font-family:'Kaushan Script';-inkscape-font-specification:'Kaushan Script';text-align:end;text-anchor:end;fill:#131c32;fill-opacity:1;stroke-width:0.521512"
       x="505.48703"
       y="-1916.4589"
       id="text3785"
       transform="scale(1,-1)"><tspan
         sodipodi:role="line"
         id="tspan3783"
         style="font-style:normal;font-variant:normal;font-weight:normal;font-stretch:normal;font-size:10.0206px;font-family:Cuprum;-inkscape-font-specification:Cuprum;fill:#131c32;fill-opacity:1;stroke-width:0.521512"
         x="505.48703"
         y="-1916.4589">Profe</tspan></text>
  </g>
</svg>
